# xmcd
#
# Track frame offsets:
#	150
#	10980
#	22448
#	35738
#	47603
#	60165
#	71766
#	83757
#	96567
#	107582
#	117348
#	130091
#	141964
#	152315
#	164878
#	175799
#	187056
#	197766
#
# Disc length: 2792 seconds
#
# Revision: 1
# Processed by: cddbd v1.5.2PL0 Copyright (c) Steve Scherf et al.
# Submitted via: audiograbber 1.83.01
#
DISCID=010ae612
DTITLE=Various Artist - The Northern Soul Of New Orleans
DYEAR=2005
DGENRE=Northern Soul
TTITLE0=Maurice Williams - Being Without You
TTITLE1=Gerri Hall - Who Can I Run To
TTITLE2=Pat Brown - The Good Got To Suffer For The Bad
TTITLE3=Senator Jones - Do You Love Me
TTITLE4=Curly Moore - You Don't Mean It
TTITLE5=Betty Harris - Mean Man
TTITLE6=Robert Parker - I Caught You In A Lie
TTITLE7=Eldridge Holmes - Without A Word
TTITLE8=Elliott Small - I'm A Devil
TTITLE9=The Rubaiyats - Omar Khayyam
TTITLE10=Curly Moore - Don't Pity Me
TTITLE11=The Sonatas - Going On Down The Road
TTITLE12=Ray Algere - In My Corner
TTITLE13=The Barons - As Sure As You're Born
TTITLE14=Marty Lewis - I Can't Do Without You
TTITLE15=The Jades - Lucky Fellow
TTITLE16=Willie Tee - Please Don't Go
TTITLE17=Donna King - Take Me Home
EXTD=
EXTT0=
EXTT1=
EXTT2=
EXTT3=
EXTT4=
EXTT5=
EXTT6=
EXTT7=
EXTT8=
EXTT9=
EXTT10=
EXTT11=
EXTT12=
EXTT13=
EXTT14=
EXTT15=
EXTT16=
EXTT17=
PLAYORDER=
